<svg xmlns="http://www.w3.org/2000/svg" width="1em" height="1em" viewBox="0 0 48 48"><g fill="none"><rect width="32" height="40" x="8" y="4" stroke="#150f0f" stroke-linejoin="round" stroke-width="4.9" rx="2"/><path stroke="#150f0f" stroke-linecap="round" stroke-linejoin="round" stroke-width="4.9" d="M21 14h12M21 24h12M21 34h12"/><path fill="#150f0f" fill-rule="evenodd" d="M15 16a2 2 0 1 0 0-4a2 2 0 0 0 0 4m0 10a2 2 0 1 0 0-4a2 2 0 0 0 0 4m0 10a2 2 0 1 0 0-4a2 2 0 0 0 0 4" clip-rule="evenodd"/></g></svg>